<svg xmlns="http://www.w3.org/2000/svg" width="24" height="24" fill="none" viewBox="0 0 24 24">
    <path fill="#46515A" stroke="#46515A" stroke-width="1.5" d="M8.718 17.118s0 0 0 0c-.084.084-.199.132-.318.132-.12 0-.234-.048-.318-.132 0 0 0 0 0 0l-4.8-4.8c-.084-.084-.132-.199-.132-.318 0-.12.048-.234.132-.318 0 0 0 0 0 0l4.794-4.794c.085-.08.197-.124.313-.123.118 0 .231.048.314.131.084.084.131.197.132.315.001.116-.043.228-.123.313L5.966 10.27l-1.28 1.28H20.4c.12 0 .234.047.318.132.085.084.132.199.132.318 0 .12-.047.234-.132.318-.084.085-.199.132-.318.132H4.687l1.28 1.28 2.751 2.752.53-.53c.225.225.352.53.352.848 0 .318-.127.623-.352.848l-.53-.53zm0 0c.084-.084.132-.199.132-.318 0-.12-.048-.234-.132-.318v.636z"/>
</svg>
