<svg xmlns="http://www.w3.org/2000/svg" width="24" height="24" fill="none" viewBox="0 0 24 24">
    <path stroke="#B2C4CD" stroke-linecap="round" stroke-linejoin="round" stroke-width="1.5" d="M8 16H6c-.53 0-1.04-.21-1.414-.586C4.21 15.04 4 14.53 4 14V6c0-.53.21-1.04.586-1.414C4.96 4.21 5.47 4 6 4h8c.53 0 1.04.21 1.414.586C15.79 4.96 16 5.47 16 6v2m-6 12h8c.53 0 1.04-.21 1.414-.586C19.79 19.04 20 18.53 20 18v-8c0-.53-.21-1.04-.586-1.414C19.04 8.21 18.53 8 18 8h-8c-.53 0-1.04.21-1.414.586C8.21 8.96 8 9.47 8 10v8c0 .53.21 1.04.586 1.414C8.96 19.79 9.47 20 10 20z"/>
</svg>
