<svg xmlns="http://www.w3.org/2000/svg" width="150" height="33" fill="none" viewBox="0 0 150 33">
    <path fill="#3D9F95" d="M25.74 9.248c2.317 0 4.092.415 5.324 1.245 1.233.816 1.85 2.092 1.85 3.827 0 1.083-.253 1.965-.758 2.647-.49.668-1.203 1.194-2.139 1.58.312.386.639.83.98 1.335.342.49.676 1.008 1.003 1.557.342.534.668 1.098.98 1.69.312.58.602 1.15.869 1.714H29.95c-.282-.504-.571-1.016-.868-1.535-.283-.52-.58-1.024-.892-1.513-.297-.49-.594-.95-.89-1.38-.298-.444-.595-.845-.892-1.2h-1.715v5.628h-3.475V9.648c.757-.148 1.537-.252 2.339-.311.817-.06 1.544-.09 2.183-.09zm.2 2.958c-.252 0-.482.008-.69.023-.193.014-.379.03-.557.044v4.183h.98c1.307 0 2.243-.163 2.807-.49.564-.326.847-.882.847-1.668 0-.757-.29-1.29-.87-1.602-.564-.326-1.403-.49-2.517-.49zM34.73 19.08c0-1.038.156-1.942.468-2.714.327-.786.75-1.438 1.27-1.957.52-.52 1.114-.913 1.782-1.18.684-.266 1.382-.4 2.094-.4 1.664 0 2.978.512 3.944 1.535.965 1.009 1.448 2.5 1.448 4.472 0 .193-.008.408-.023.645-.015.222-.03.423-.044.6h-7.53c.074.683.394 1.224.958 1.625.564.4 1.322.6 2.272.6.61 0 1.203-.052 1.782-.155.594-.119 1.077-.26 1.448-.423l.446 2.692c-.178.089-.416.178-.713.267-.297.089-.631.163-1.002.222-.357.075-.743.134-1.159.178-.416.045-.831.067-1.247.067-1.055 0-1.976-.156-2.763-.467-.772-.312-1.418-.734-1.938-1.268-.505-.549-.884-1.194-1.136-1.936-.238-.741-.357-1.542-.357-2.402zm7.798-1.267c-.015-.282-.067-.557-.156-.824-.075-.267-.2-.504-.379-.712-.163-.207-.379-.378-.646-.511-.253-.134-.572-.2-.958-.2-.371 0-.69.066-.958.2-.267.118-.49.281-.668.49-.178.207-.32.451-.423.733-.09.267-.156.542-.201.823h4.389zM54.736 18.636c0-1.068-.141-1.825-.423-2.27-.268-.445-.735-.667-1.404-.667-.208 0-.423.015-.646.044-.223.015-.438.037-.646.067v9.033h-3.32V13.54c.283-.074.61-.148.981-.223.386-.088.787-.163 1.203-.222.43-.074.869-.126 1.314-.156.446-.044.884-.066 1.315-.066.846 0 1.53.11 2.05.333.534.208.972.46 1.314.757.475-.341 1.017-.608 1.626-.801.624-.193 1.195-.29 1.715-.29.936 0 1.7.134 2.295.401.609.252 1.091.616 1.448 1.09.356.475.601 1.038.735 1.69.134.654.2 1.38.2 2.181v6.608h-3.319v-6.207c0-1.068-.141-1.825-.423-2.27-.267-.445-.735-.667-1.404-.667-.178 0-.43.044-.757.133-.312.09-.572.2-.78.334.104.341.171.705.2 1.09.03.371.045.771.045 1.202v6.385h-3.319v-6.207zM71.985 22.529c.327 0 .639-.008.936-.022.297-.015.534-.037.712-.067v-2.514c-.133-.03-.334-.06-.601-.089-.267-.03-.512-.044-.735-.044-.312 0-.61.022-.891.066-.268.03-.505.097-.713.2-.208.104-.371.245-.49.423s-.178.4-.178.668c0 .519.17.882.512 1.09.356.193.84.289 1.448.289zm-.267-9.7c.98 0 1.797.111 2.45.334.654.222 1.173.541 1.56.956.4.416.683.92.846 1.513.163.594.245 1.254.245 1.98v6.897c-.475.104-1.136.222-1.983.356-.846.148-1.87.222-3.074.222-.757 0-1.448-.066-2.072-.2-.608-.133-1.136-.349-1.581-.645-.446-.312-.787-.712-1.025-1.201-.238-.49-.356-1.09-.356-1.803 0-.682.133-1.26.4-1.735.283-.474.654-.852 1.114-1.134.46-.282.988-.482 1.582-.601.594-.134 1.21-.2 1.85-.2.43 0 .808.022 1.135.066.342.03.617.075.825.134v-.312c0-.563-.171-1.015-.513-1.357-.341-.34-.935-.511-1.782-.511-.564 0-1.121.044-1.67.133-.55.074-1.026.186-1.427.334l-.423-2.67c.193-.059.43-.118.713-.178.297-.074.616-.133.958-.178.342-.059.698-.104 1.07-.133.385-.045.772-.067 1.158-.067zM86.882 16.077c-.297-.074-.646-.148-1.047-.222-.4-.09-.831-.134-1.292-.134-.208 0-.46.023-.757.067-.282.03-.498.067-.646.111v8.944h-3.32v-11.08c.594-.207 1.292-.4 2.094-.578.817-.193 1.723-.289 2.718-.289.178 0 .394.015.646.044.253.015.505.045.758.09.252.03.505.074.757.133.253.044.468.104.646.178l-.557 2.736zM92.538 17.367c.327-.356.66-.726 1.002-1.112.357-.386.698-.764 1.025-1.135.327-.385.632-.749.914-1.09.297-.34.55-.637.757-.89h3.943c-.787.905-1.56 1.773-2.317 2.603-.742.816-1.56 1.661-2.45 2.536.445.401.906.883 1.381 1.447.475.548.936 1.12 1.381 1.713.446.593.854 1.186 1.225 1.78.372.593.684 1.134.936 1.623h-3.81c-.237-.385-.512-.808-.824-1.268-.297-.474-.616-.942-.957-1.401-.342-.475-.706-.927-1.092-1.357-.371-.43-.743-.794-1.114-1.09v5.116h-3.32V8.112l3.32-.533v9.788zM106.38 22.529c.326 0 .638-.008.935-.022.297-.015.535-.037.713-.067v-2.514c-.134-.03-.334-.06-.601-.089-.268-.03-.513-.044-.736-.044-.311 0-.609.022-.891.066-.267.03-.505.097-.713.2-.207.104-.371.245-.49.423-.118.178-.178.4-.178.668 0 .519.171.882.512 1.09.357.193.84.289 1.449.289zm-.268-9.7c.98 0 1.797.111 2.451.334.653.222 1.173.541 1.559.956.401.416.683.92.847 1.513.163.594.245 1.254.245 1.98v6.897c-.476.104-1.136.222-1.983.356-.847.148-1.871.222-3.074.222-.758 0-1.448-.066-2.072-.2-.609-.133-1.136-.349-1.582-.645-.445-.312-.787-.712-1.024-1.201-.238-.49-.357-1.09-.357-1.803 0-.682.134-1.26.401-1.735.282-.474.654-.852 1.114-1.134.46-.282.988-.482 1.582-.601.594-.134 1.21-.2 1.849-.2.43 0 .809.022 1.136.066.341.03.616.075.824.134v-.312c0-.563-.171-1.015-.512-1.357-.342-.34-.936-.511-1.783-.511-.564 0-1.121.044-1.67.133-.55.074-1.025.186-1.426.334l-.423-2.67c.193-.059.43-.118.713-.178.297-.074.616-.133.957-.178.342-.059.698-.104 1.07-.133.386-.045.772-.067 1.158-.067zM121.722 18.902c0-2.135-.787-3.203-2.361-3.203-.342 0-.683.044-1.025.133-.327.09-.594.2-.802.334v6.029c.164.03.371.06.624.089.252.015.527.022.824.022.906 0 1.589-.311 2.05-.934.46-.623.69-1.446.69-2.47zm3.386.09c0 .934-.141 1.78-.423 2.536-.267.756-.661 1.401-1.181 1.935-.519.534-1.158.95-1.915 1.246-.758.282-1.619.423-2.585.423-.401 0-.824-.023-1.269-.067-.431-.03-.862-.074-1.292-.134-.416-.059-.817-.126-1.203-.2-.387-.089-.728-.178-1.025-.267V8.113l3.319-.534v5.828c.371-.163.758-.289 1.159-.378.401-.089.831-.133 1.292-.133.831 0 1.566.148 2.205.445.639.281 1.173.69 1.604 1.223.431.534.757 1.18.98 1.936.223.741.334 1.572.334 2.491zM132.338 25.065c-.965-.015-1.752-.119-2.361-.312-.594-.192-1.069-.46-1.426-.8-.341-.356-.579-.78-.713-1.269-.118-.504-.178-1.067-.178-1.69V8.113l3.319-.534v12.747c0 .297.023.564.067.801.045.237.127.438.245.6.134.164.32.297.557.401.238.104.557.17.958.2l-.468 2.737zM134.151 19.08c0-1.038.156-1.942.468-2.714.327-.786.75-1.438 1.27-1.957.52-.52 1.114-.913 1.782-1.18.683-.266 1.381-.4 2.094-.4 1.664 0 2.978.512 3.943 1.535.966 1.009 1.448 2.5 1.448 4.472 0 .193-.007.408-.022.645-.015.222-.03.423-.045.6h-7.529c.074.683.393 1.224.958 1.625.564.4 1.321.6 2.272.6.609 0 1.203-.052 1.782-.155.594-.119 1.077-.26 1.448-.423l.446 2.692c-.178.089-.416.178-.713.267-.297.089-.631.163-1.003.222-.356.075-.742.134-1.158.178-.416.045-.832.067-1.248.067-1.054 0-1.975-.156-2.762-.467-.772-.312-1.418-.734-1.938-1.268-.505-.549-.884-1.194-1.136-1.936-.238-.741-.357-1.542-.357-2.402zm7.797-1.267c-.014-.282-.066-.557-.156-.824-.074-.267-.2-.504-.378-.712-.164-.207-.379-.378-.646-.511-.253-.134-.572-.2-.958-.2-.372 0-.691.066-.958.2-.267.118-.49.281-.668.49-.179.207-.32.451-.424.733-.089.267-.156.542-.2.823h4.388zM10.961 13.207h2.584l.735-3.782h2.897l-.736 3.782h1.627v2.559H15.95l-.534 2.736h2.65v2.559h-3.14l-.713 3.782h-2.896l.712-3.782H9.446l-.713 3.782H5.837l.713-3.782H4.946v-2.559H7.04l.535-2.736H4.946v-2.559h3.12L8.8 9.425h2.896l-.735 3.782zm-1.025 5.295h2.585l.534-2.736h-2.584l-.535 2.736z"/>
</svg>
